<svg id="visual" viewBox="0 0 960 540" width="960" height="540" xmlns="http://www.w3.org/2000/svg" xmlns:xlink="http://www.w3.org/1999/xlink" version="1.1"><rect x="0" y="0" width="960" height="540" fill="#220002"></rect><path d="M0 277L22.8 280.2C45.7 283.3 91.3 289.7 137 299.8C182.7 310 228.3 324 274 329.7C319.7 335.3 365.3 332.7 411.2 326.8C457 321 503 312 548.8 316.8C594.7 321.7 640.3 340.3 686 342.3C731.7 344.3 777.3 329.7 823 331C868.7 332.3 914.3 349.7 937.2 358.3L960 367L960 541L937.2 541C914.3 541 868.7 541 823 541C777.3 541 731.7 541 686 541C640.3 541 594.7 541 548.8 541C503 541 457 541 411.2 541C365.3 541 319.7 541 274 541C228.3 541 182.7 541 137 541C91.3 541 45.7 541 22.8 541L0 541Z" fill="#943504"></path><path d="M0 375L22.8 371.5C45.7 368 91.3 361 137 356C182.7 351 228.3 348 274 343.5C319.7 339 365.3 333 411.2 343.7C457 354.3 503 381.7 548.8 383.7C594.7 385.7 640.3 362.3 686 357.3C731.7 352.3 777.3 365.7 823 362.5C868.7 359.3 914.3 339.7 937.2 329.8L960 320L960 541L937.2 541C914.3 541 868.7 541 823 541C777.3 541 731.7 541 686 541C640.3 541 594.7 541 548.8 541C503 541 457 541 411.2 541C365.3 541 319.7 541 274 541C228.3 541 182.7 541 137 541C91.3 541 45.7 541 22.8 541L0 541Z" fill="#ae4f04"></path><path d="M0 418L22.8 413.7C45.7 409.3 91.3 400.7 137 404.5C182.7 408.3 228.3 424.7 274 422C319.7 419.3 365.3 397.7 411.2 392.7C457 387.7 503 399.3 548.8 407.2C594.7 415 640.3 419 686 415C731.7 411 777.3 399 823 396.5C868.7 394 914.3 401 937.2 404.5L960 408L960 541L937.2 541C914.3 541 868.7 541 823 541C777.3 541 731.7 541 686 541C640.3 541 594.7 541 548.8 541C503 541 457 541 411.2 541C365.3 541 319.7 541 274 541C228.3 541 182.7 541 137 541C91.3 541 45.7 541 22.8 541L0 541Z" fill="#c76b03"></path><path d="M0 448L22.8 442.2C45.7 436.3 91.3 424.7 137 422.8C182.7 421 228.3 429 274 433C319.7 437 365.3 437 411.2 438C457 439 503 441 548.8 441.7C594.7 442.3 640.3 441.7 686 439.8C731.7 438 777.3 435 823 434.7C868.7 434.3 914.3 436.7 937.2 437.8L960 439L960 541L937.2 541C914.3 541 868.7 541 823 541C777.3 541 731.7 541 686 541C640.3 541 594.7 541 548.8 541C503 541 457 541 411.2 541C365.3 541 319.7 541 274 541C228.3 541 182.7 541 137 541C91.3 541 45.7 541 22.8 541L0 541Z" fill="#df8802"></path><path d="M0 485L22.8 485.2C45.7 485.3 91.3 485.7 137 490C182.7 494.3 228.3 502.7 274 499.2C319.7 495.7 365.3 480.3 411.2 474.5C457 468.7 503 472.3 548.8 471.8C594.7 471.3 640.3 466.7 686 467.2C731.7 467.7 777.3 473.3 823 479.8C868.7 486.3 914.3 493.7 937.2 497.3L960 501L960 541L937.2 541C914.3 541 868.7 541 823 541C777.3 541 731.7 541 686 541C640.3 541 594.7 541 548.8 541C503 541 457 541 411.2 541C365.3 541 319.7 541 274 541C228.3 541 182.7 541 137 541C91.3 541 45.7 541 22.8 541L0 541Z" fill="#f4a604"></path></svg>