<svg id="visual" viewBox="0 0 450 900" width="450" height="900" xmlns="http://www.w3.org/2000/svg" xmlns:xlink="http://www.w3.org/1999/xlink" version="1.1"><rect x="0" y="0" width="450" height="900" fill="#220002"></rect><path d="M0 582L10.7 595.2C21.3 608.3 42.7 634.7 64.2 634.7C85.7 634.7 107.3 608.3 128.8 598.5C150.3 588.7 171.7 595.3 193 604.2C214.3 613 235.7 624 257 634.8C278.3 645.7 299.7 656.3 321.2 652C342.7 647.7 364.3 628.3 385.8 605.8C407.3 583.3 428.7 557.7 439.3 544.8L450 532L450 901L439.3 901C428.7 901 407.3 901 385.8 901C364.3 901 342.7 901 321.2 901C299.7 901 278.3 901 257 901C235.7 901 214.3 901 193 901C171.7 901 150.3 901 128.8 901C107.3 901 85.7 901 64.2 901C42.7 901 21.3 901 10.7 901L0 901Z" fill="#943504"></path><path d="M0 633L10.7 643.3C21.3 653.7 42.7 674.3 64.2 676.3C85.7 678.3 107.3 661.7 128.8 657.3C150.3 653 171.7 661 193 671.3C214.3 681.7 235.7 694.3 257 682C278.3 669.7 299.7 632.3 321.2 626.7C342.7 621 364.3 647 385.8 658.7C407.3 670.3 428.7 667.7 439.3 666.3L450 665L450 901L439.3 901C428.7 901 407.3 901 385.8 901C364.3 901 342.7 901 321.2 901C299.7 901 278.3 901 257 901C235.7 901 214.3 901 193 901C171.7 901 150.3 901 128.8 901C107.3 901 85.7 901 64.2 901C42.7 901 21.3 901 10.7 901L0 901Z" fill="#a14204"></path><path d="M0 700L10.7 694C21.3 688 42.7 676 64.2 678C85.7 680 107.3 696 128.8 705.7C150.3 715.3 171.7 718.7 193 713.3C214.3 708 235.7 694 257 691.5C278.3 689 299.7 698 321.2 702.2C342.7 706.3 364.3 705.7 385.8 699.2C407.3 692.7 428.7 680.3 439.3 674.2L450 668L450 901L439.3 901C428.7 901 407.3 901 385.8 901C364.3 901 342.7 901 321.2 901C299.7 901 278.3 901 257 901C235.7 901 214.3 901 193 901C171.7 901 150.3 901 128.8 901C107.3 901 85.7 901 64.2 901C42.7 901 21.3 901 10.7 901L0 901Z" fill="#ae4f04"></path><path d="M0 763L10.7 756.2C21.3 749.3 42.7 735.7 64.2 740.7C85.7 745.7 107.3 769.3 128.8 769.5C150.3 769.7 171.7 746.3 193 746.7C214.3 747 235.7 771 257 785.7C278.3 800.3 299.7 805.7 321.2 795C342.7 784.3 364.3 757.7 385.8 756.7C407.3 755.7 428.7 780.3 439.3 792.7L450 805L450 901L439.3 901C428.7 901 407.3 901 385.8 901C364.3 901 342.7 901 321.2 901C299.7 901 278.3 901 257 901C235.7 901 214.3 901 193 901C171.7 901 150.3 901 128.8 901C107.3 901 85.7 901 64.2 901C42.7 901 21.3 901 10.7 901L0 901Z" fill="#bb5d04"></path><path d="M0 841L10.7 832.5C21.3 824 42.7 807 64.2 805.5C85.7 804 107.3 818 128.8 820.3C150.3 822.7 171.7 813.3 193 807.5C214.3 801.7 235.7 799.3 257 800.8C278.3 802.3 299.7 807.7 321.2 808.2C342.7 808.7 364.3 804.3 385.8 801.8C407.3 799.3 428.7 798.7 439.3 798.3L450 798L450 901L439.3 901C428.7 901 407.3 901 385.8 901C364.3 901 342.7 901 321.2 901C299.7 901 278.3 901 257 901C235.7 901 214.3 901 193 901C171.7 901 150.3 901 128.8 901C107.3 901 85.7 901 64.2 901C42.7 901 21.3 901 10.7 901L0 901Z" fill="#c76b03"></path></svg>