<svg id="visual" viewBox="0 0 960 540" width="960" height="540" xmlns="http://www.w3.org/2000/svg" xmlns:xlink="http://www.w3.org/1999/xlink" version="1.1"><rect x="0" y="0" width="960" height="540" fill="#210002"></rect><path d="M0 329L16 333C32 337 64 345 96 343.8C128 342.7 160 332.3 192 322C224 311.7 256 301.3 288 309.8C320 318.3 352 345.7 384 358.5C416 371.3 448 369.7 480 356.3C512 343 544 318 576 310.8C608 303.7 640 314.3 672 317.7C704 321 736 317 768 321C800 325 832 337 864 338.5C896 340 928 331 944 326.5L960 322L960 541L944 541C928 541 896 541 864 541C832 541 800 541 768 541C736 541 704 541 672 541C640 541 608 541 576 541C544 541 512 541 480 541C448 541 416 541 384 541C352 541 320 541 288 541C256 541 224 541 192 541C160 541 128 541 96 541C64 541 32 541 16 541L0 541Z" fill="#ffa726"></path><path d="M0 341L16 343.7C32 346.3 64 351.7 96 362.5C128 373.3 160 389.7 192 396.5C224 403.3 256 400.7 288 391.5C320 382.3 352 366.7 384 362.8C416 359 448 367 480 364.7C512 362.3 544 349.7 576 348.3C608 347 640 357 672 369.3C704 381.7 736 396.3 768 403.7C800 411 832 411 864 405.3C896 399.7 928 388.3 944 382.7L960 377L960 541L944 541C928 541 896 541 864 541C832 541 800 541 768 541C736 541 704 541 672 541C640 541 608 541 576 541C544 541 512 541 480 541C448 541 416 541 384 541C352 541 320 541 288 541C256 541 224 541 192 541C160 541 128 541 96 541C64 541 32 541 16 541L0 541Z" fill="#fd9a1c"></path><path d="M0 420L16 422C32 424 64 428 96 423C128 418 160 404 192 396.7C224 389.3 256 388.7 288 395.2C320 401.7 352 415.3 384 418.3C416 421.3 448 413.7 480 410.7C512 407.7 544 409.3 576 405.8C608 402.3 640 393.7 672 396.3C704 399 736 413 768 416.5C800 420 832 413 864 408.7C896 404.3 928 402.7 944 401.8L960 401L960 541L944 541C928 541 896 541 864 541C832 541 800 541 768 541C736 541 704 541 672 541C640 541 608 541 576 541C544 541 512 541 480 541C448 541 416 541 384 541C352 541 320 541 288 541C256 541 224 541 192 541C160 541 128 541 96 541C64 541 32 541 16 541L0 541Z" fill="#fb8d12"></path><path d="M0 451L16 451.3C32 451.7 64 452.3 96 451.8C128 451.3 160 449.7 192 452.8C224 456 256 464 288 465.7C320 467.3 352 462.7 384 456.8C416 451 448 444 480 445.7C512 447.3 544 457.7 576 457.5C608 457.3 640 446.7 672 439.7C704 432.7 736 429.3 768 430C800 430.7 832 435.3 864 440.2C896 445 928 450 944 452.5L960 455L960 541L944 541C928 541 896 541 864 541C832 541 800 541 768 541C736 541 704 541 672 541C640 541 608 541 576 541C544 541 512 541 480 541C448 541 416 541 384 541C352 541 320 541 288 541C256 541 224 541 192 541C160 541 128 541 96 541C64 541 32 541 16 541L0 541Z" fill="#f97f09"></path><path d="M0 480L16 477.3C32 474.7 64 469.3 96 473C128 476.7 160 489.3 192 489.8C224 490.3 256 478.7 288 477.7C320 476.7 352 486.3 384 489.3C416 492.3 448 488.7 480 487.2C512 485.7 544 486.3 576 486.5C608 486.7 640 486.3 672 484.3C704 482.3 736 478.7 768 477.2C800 475.7 832 476.3 864 477.3C896 478.3 928 479.7 944 480.3L960 481L960 541L944 541C928 541 896 541 864 541C832 541 800 541 768 541C736 541 704 541 672 541C640 541 608 541 576 541C544 541 512 541 480 541C448 541 416 541 384 541C352 541 320 541 288 541C256 541 224 541 192 541C160 541 128 541 96 541C64 541 32 541 16 541L0 541Z" fill="#f77103"></path></svg>